<?xml version="1.0" encoding="utf-8"?>
<!-- Generator: Adobe Illustrator 16.0.4, SVG Export Plug-In . SVG Version: 6.00 Build 0)  -->
<!DOCTYPE svg PUBLIC "-//W3C//DTD SVG 1.1//EN" "http://www.w3.org/Graphics/SVG/1.1/DTD/svg11.dtd">
<svg version="1.1" xmlns="http://www.w3.org/2000/svg" xmlns:xlink="http://www.w3.org/1999/xlink" x="0px" y="0px"
	 width="16.146px" height="16.104px" viewBox="0 0 16.146 16.104" enable-background="new 0 0 16.146 16.104" xml:space="preserve">
<g id="Grid_12_Col_1200px" display="none" opacity="0.6">
</g>
<g id="Background" display="none">
	<rect x="-2174.875" y="-4623.25" display="inline" fill="#FFFFFF" width="11008" height="5160"/>
</g>
<g id="Content">
</g>
<g id="Quicklinks">
</g>
<g id="Header">
</g>
<g id="Chrome">
</g>
<g id="Footer">
	<g id="qJ8adX_20_">
		<g>
			<g>
				<path fill-rule="evenodd" clip-rule="evenodd" fill="#000" d="M16.202,9.473c-0.778,0-1.332,0-1.973,0
					c0,2.213,0,4.396,0,6.633c-1.375,0-2.665,0-4.016,0c0-1.73,0-3.447,0-5.229c-1.347,0-2.637,0-4.018,0c0,1.713,0,3.449,0,5.234
					c-1.379,0-2.668,0-4.018,0c0-2.193,0-4.355,0-6.609c-0.647,0-1.239,0-2.052,0c2.751-3.209,5.361-6.256,8.049-9.391
					C10.848,3.229,13.46,6.275,16.202,9.473z"/>
			</g>
		</g>
	</g>
</g>
<g id="Styleguide">
</g>
</svg>
